<?xml version="1.0" standalone="no"?><!DOCTYPE svg PUBLIC "-//W3C//DTD SVG 1.1//EN" "http://www.w3.org/Graphics/SVG/1.1/DTD/svg11.dtd"><svg t="1694242464967" class="icon" viewBox="0 0 1024 1024" version="1.1" xmlns="http://www.w3.org/2000/svg" p-id="3916" xmlns:xlink="http://www.w3.org/1999/xlink" width="200" height="200"><path d="M870.4 17.066667c0-10.24-6.826667-17.066667-17.066667-17.066667-201.386667 0-249.173333 290.133333-256 392.533333-27.306667-10.24-54.613333-17.066667-85.333333-17.066666s-58.026667 6.826667-85.333333 17.066666C419.84 290.133333 372.053333 0 170.666667 0c-10.24 0-17.066667 6.826667-17.066667 17.066667 0 201.386667 10.24 406.186667 122.88 522.24-34.133333 64.853333-54.613333 139.946667-54.613333 211.626666 0 119.466667 109.226667 170.666667 139.946666 184.32 10.24 23.893333 44.373333 88.746667 150.186667 88.746667s139.946667-64.853333 150.186667-88.746667c30.72-13.653333 139.946667-64.853333 139.946666-184.32 0-71.68-20.48-146.773333-54.613333-211.626666 112.64-116.053333 122.88-320.853333 122.88-522.24zM750.933333 167.253333c3.413333 0 17.066667 3.413333 17.066667 20.48 0 170.666667-44.373333 296.96-47.786667 307.2-20.48-27.306667-44.373333-51.2-68.266666-71.68 75.093333-259.413333 81.92-259.413333 98.986666-256z m-494.933333 20.48c0-17.066667 13.653333-20.48 17.066667-20.48 17.066667-3.413333 23.893333-3.413333 102.4 259.413334-27.306667 20.48-51.2 44.373333-68.266667 71.68-6.826667-13.653333-51.2-139.946667-51.2-310.613334zM375.466667 716.8c-27.306667 0-51.2-30.72-51.2-68.266667s23.893333-68.266667 51.2-68.266666 51.2 30.72 51.2 68.266666-23.893333 68.266667-51.2 68.266667z m197.973333 150.186667l-37.546667 23.893333 27.306667 37.546667c6.826667 6.826667 3.413333 17.066667-3.413333 23.893333-6.826667 3.413333-10.24 3.413333-13.653334 3.413333-6.826667 0-10.24-3.413333-13.653333-6.826666l-20.48-30.72-20.48 30.72c-3.413333 3.413333-6.826667 6.826667-13.653333 6.826666-3.413333 0-6.826667 0-10.24-3.413333-6.826667-6.826667-10.24-17.066667-3.413334-23.893333l23.893334-37.546667-37.546667-23.893333c-3.413333-3.413333-6.826667-6.826667-6.826667-13.653334s3.413333-10.24 6.826667-13.653333c3.413333-3.413333 30.72-20.48 61.44-20.48s58.026667 17.066667 61.44 20.48c3.413333 3.413333 6.826667 10.24 6.826667 13.653333s-3.413333 10.24-6.826667 13.653334zM648.533333 716.8c-27.306667 0-51.2-30.72-51.2-68.266667s23.893333-68.266667 51.2-68.266666 51.2 30.72 51.2 68.266666-23.893333 68.266667-51.2 68.266667z" fill="#2c2c2c" p-id="3917"></path><path d="M648.533333 614.4c-6.826667 0-17.066667 13.653333-17.066666 34.133333s10.24 34.133333 17.066666 34.133334 17.066667-13.653333 17.066667-34.133334-10.24-34.133333-17.066667-34.133333zM375.466667 614.4c-6.826667 0-17.066667 13.653333-17.066667 34.133333s10.24 34.133333 17.066667 34.133334 17.066667-13.653333 17.066666-34.133334-10.24-34.133333-17.066666-34.133333z" fill="#2c2c2c" p-id="3918"></path></svg>