<?xml version="1.0" standalone="no"?><!DOCTYPE svg PUBLIC "-//W3C//DTD SVG 1.1//EN" "http://www.w3.org/Graphics/SVG/1.1/DTD/svg11.dtd"><svg t="1694242745326" class="icon" viewBox="0 0 1024 1024" version="1.1" xmlns="http://www.w3.org/2000/svg" p-id="15825" xmlns:xlink="http://www.w3.org/1999/xlink" width="200" height="200"><path d="M512 0c281.991529 0 512 230.008471 512 512s-230.008471 512-512 512S0 793.991529 0 512 230.008471 0 512 0z m-114.688 525.101176L273.799529 713.788235c-13.673412 18.221176-21.805176 37.767529-23.913411 58.277647 2.078118 52.585412 34.153412 80.112941 96.015058 82.371765H678.128941c61.861647-2.288941 93.906824-29.816471 96.015059-82.371765-2.078118-20.510118-10.24-40.056471-23.913412-58.277647l-123.51247-188.687059 113.27247-171.610352c116.495059-176.338824-108.152471-255.518118-154.443294-103.062589l-73.607529 211.275294-73.426824-211.275294c-46.290824-152.425412-270.938353-73.276235-154.443294 103.062589l113.242353 171.610352z" fill="#2c2c2c" p-id="15826"></path></svg>